<svg width="10" height="14" viewBox="0 0 10 14" fill="none" xmlns="http://www.w3.org/2000/svg">
<path fill-rule="evenodd" clip-rule="evenodd" d="M4.99609 0C2.23659 0 -0.00390625 2.2405 -0.00390625 5C-0.00390625 5.8535 0.379094 7.021 0.946094 8.258C1.74909 10.012 2.91059 11.924 3.70209 13.2445C3.96709 13.711 4.46259 14 4.99959 14C5.26365 14 5.52298 13.9299 5.75105 13.7968C5.97911 13.6637 6.16773 13.4724 6.29759 13.2425C7.08909 11.924 8.24759 10.012 9.04909 8.2575C9.61459 7.0205 9.99609 5.8535 9.99609 5C9.99609 2.2405 7.75609 0 4.99609 0ZM4.99609 1C7.20409 1 8.99609 2.7925 8.99609 5C8.99609 5.7465 8.63459 6.7595 8.13959 7.842C7.35259 9.564 6.21259 11.4405 5.43609 12.735L5.42859 12.7485C5.38585 12.8247 5.32358 12.8882 5.24818 12.9324C5.17279 12.9766 5.08699 12.9999 4.99959 13C4.91218 13 4.82634 12.9767 4.75092 12.9325C4.67551 12.8883 4.61326 12.8248 4.57059 12.7485C4.56809 12.744 4.56559 12.7395 4.56309 12.7355C3.78659 11.4405 2.64409 9.564 1.85509 7.8415C1.35909 6.7595 0.996094 5.7465 0.996094 5C0.996094 2.7925 2.78859 1 4.99609 1ZM4.99959 3C3.89559 3 2.99959 3.896 2.99959 5C2.99959 6.104 3.89559 7 4.99959 7C6.10359 7 6.99959 6.104 6.99959 5C6.99959 3.896 6.10359 3 4.99959 3ZM4.99959 4C5.55159 4 5.99959 4.448 5.99959 5C5.99959 5.552 5.55159 6 4.99959 6C4.44759 6 3.99959 5.552 3.99959 5C3.99959 4.448 4.44759 4 4.99959 4Z" fill="white"/>
</svg>
