<svg width="16" height="13" viewBox="0 0 16 13" fill="none" xmlns="http://www.w3.org/2000/svg">
<path d="M14.3813 0.015625L7.96562 0.03125L1.55 0H1.54688C0.684375 0 0 0.809375 0 1.82188V10.3031C0 11.3156 0.684375 12.125 1.54688 12.125H14.3906C15.2531 12.125 15.9375 11.3156 15.9375 10.3031V1.82188C15.9375 0.809375 15.2594 0.015625 14.3813 0.015625ZM13.8781 1.26562L8.14688 6.50625L8.125 6.525L8.10625 6.54688C8.0375 6.62187 7.95625 6.63125 7.9125 6.63125C7.86875 6.63125 7.7875 6.61875 7.72188 6.54062L7.70312 6.51875L2.225 1.24062L7.96562 1.27812L13.8781 1.26562ZM14.3906 10.875H1.54688C1.4375 10.875 1.25 10.6688 1.25 10.3031V2.02187L6.8 7.38437C7.08125 7.69687 7.47813 7.87812 7.9 7.88437H7.91875C8.33437 7.88437 8.72188 7.7125 9.00625 7.4125L14.6938 2.20625V10.3031C14.6875 10.6688 14.5 10.875 14.3906 10.875Z" fill="white"/>
</svg>
