<svg width="14" height="14" viewBox="0 0 14 14" fill="none" xmlns="http://www.w3.org/2000/svg">
<path d="M12.6536 9.3245L11.5536 8.2245C11.2257 7.89923 10.7831 7.71585 10.3213 7.71389C9.85941 7.71192 9.41527 7.89154 9.08462 8.214C8.90818 8.39145 8.67542 8.50185 8.42638 8.52621C8.17734 8.55058 7.9276 8.48738 7.72012 8.3475C6.90122 7.80099 6.19772 7.09885 5.64962 6.281C5.5122 6.07121 5.45129 5.82047 5.47716 5.57101C5.50302 5.32156 5.61408 5.08864 5.79162 4.9115C6.11116 4.58054 6.28846 4.13764 6.28556 3.6776C6.28267 3.21755 6.09981 2.77692 5.77612 2.45L4.67612 1.35C4.34679 1.02181 3.90081 0.837524 3.43587 0.837524C2.97093 0.837524 2.52494 1.02181 2.19562 1.35L1.87912 1.667C0.229115 3.317 0.352615 6.786 3.78562 10.217C5.85562 12.2875 7.93912 13.1545 9.62862 13.1545C10.1259 13.1711 10.6216 13.0885 11.0867 12.9116C11.5518 12.7346 11.977 12.4669 12.3376 12.124L12.6546 11.807C12.9834 11.4775 13.168 11.031 13.1678 10.5655C13.1676 10.1001 12.9827 9.65372 12.6536 9.3245ZM11.9466 11.1L11.6296 11.417C10.3296 12.717 7.46012 12.4795 4.49162 9.5105C1.52312 6.5415 1.28512 3.67 2.58512 2.37L2.89962 2.0535C3.04122 1.91241 3.23297 1.83319 3.43287 1.83319C3.63276 1.83319 3.82451 1.91241 3.96612 2.0535L5.06612 3.1535C5.20515 3.29323 5.28406 3.48176 5.28603 3.67887C5.28799 3.87597 5.21284 4.06604 5.07662 4.2085C4.73875 4.54852 4.528 4.99431 4.47967 5.47121C4.43133 5.9481 4.54835 6.42711 4.81112 6.828C5.43389 7.75996 6.23474 8.55962 7.16762 9.181C7.56731 9.44381 8.04507 9.56152 8.5211 9.51447C8.99713 9.46742 9.4426 9.25847 9.78312 8.9225C9.92531 8.78467 10.1159 8.70813 10.3139 8.70935C10.512 8.71056 10.7016 8.78943 10.8421 8.929L11.9421 10.029C12.013 10.0989 12.0694 10.1821 12.108 10.2738C12.1466 10.3656 12.1667 10.464 12.1671 10.5636C12.1676 10.6631 12.1483 10.7617 12.1104 10.8538C12.0726 10.9459 12.0169 11.0295 11.9466 11.1Z" fill="white"/>
</svg>
