<svg width="16" height="16" viewBox="0 0 16 16" fill="none" xmlns="http://www.w3.org/2000/svg">
<g clip-path="url(#clip0_853_2177)">
<path fill-rule="evenodd" clip-rule="evenodd" d="M8.012 0.5H7.988C3.854 0.5065 0.5 3.865 0.5 8C0.5 12.1395 3.8605 15.5 8 15.5C12.1395 15.5 15.5 12.1395 15.5 8C15.5 3.865 12.146 0.5065 8.012 0.5ZM7.533 11.5165C7.003 11.5545 6.49 11.6555 6.0025 11.813C6.182 12.4225 6.404 12.958 6.6605 13.3965C6.9175 13.836 7.1965 14.1785 7.506 14.359L7.533 11.5165ZM8.533 11.5215L8.506 14.352C8.811 14.1695 9.086 13.83 9.3395 13.3965C9.596 12.958 9.818 12.4225 9.9975 11.813C9.53 11.662 9.0395 11.563 8.533 11.5215ZM5.0765 12.194C4.636 12.4165 4.2245 12.6875 3.8485 13C4.47529 13.5218 5.19486 13.9208 5.9695 14.176C5.90903 14.0862 5.85149 13.9945 5.797 13.901C5.52 13.427 5.276 12.85 5.0765 12.194ZM10.9235 12.194C10.724 12.85 10.48 13.427 10.203 13.901C10.1485 13.9945 10.091 14.0862 10.0305 14.176C10.8052 13.9209 11.5248 13.5219 12.1515 13C11.7738 12.6859 11.3619 12.4156 10.9235 12.194ZM14.481 8.5H11.4925C11.4684 9.40928 11.3628 10.3146 11.177 11.205C11.7889 11.492 12.3592 11.8603 12.8725 12.3C13.8091 11.2429 14.374 9.90828 14.481 8.5ZM4.5075 8.5H1.519C1.62619 9.90824 2.19108 11.2428 3.1275 12.3C3.64092 11.8605 4.21122 11.4922 4.823 11.205C4.63717 10.3146 4.53158 9.40929 4.5075 8.5ZM10.4925 8.5H8.5615L8.5425 10.5195C9.1275 10.561 9.6945 10.6705 10.235 10.839C10.3775 10.12 10.4665 9.331 10.4925 8.5ZM7.5425 10.514L7.5615 8.5H5.5075C5.5335 9.331 5.6225 10.12 5.765 10.839C6.34219 10.6592 6.93904 10.5501 7.5425 10.514ZM3.1275 3.7C2.19092 4.75714 1.62601 6.09172 1.519 7.5H4.5075C4.536 6.535 4.647 5.621 4.823 4.795C4.21112 4.50799 3.6408 4.13966 3.1275 3.7ZM10.235 5.161C9.70028 5.32781 9.14847 5.43381 8.59 5.477L8.571 7.5H10.4925C10.4705 6.71462 10.3844 5.93235 10.235 5.161ZM12.8725 3.7C12.3591 4.13949 11.7888 4.5078 11.177 4.795C11.353 5.621 11.464 6.5345 11.4925 7.5H14.481C14.3738 6.09176 13.8089 4.75724 12.8725 3.7ZM5.765 5.161C5.6156 5.93235 5.52948 6.71462 5.5075 7.5H7.571L7.59 5.489C6.97042 5.45578 6.35737 5.3456 5.765 5.161ZM7.6265 1.5795C7.2685 1.735 6.9505 2.1075 6.6605 2.6035C6.404 3.042 6.182 3.5775 6.0025 4.187C6.5105 4.351 7.0455 4.454 7.599 4.488L7.6265 1.5795ZM8.6255 1.7285L8.5995 4.4725C9.0746 4.42915 9.54345 4.33341 9.9975 4.187C9.818 3.5775 9.596 3.042 9.3395 2.6035C9.1195 2.227 8.883 1.9215 8.6255 1.7285ZM10.0305 1.824C10.0895 1.9115 10.147 2.003 10.203 2.099C10.48 2.573 10.724 3.15 10.9235 3.806C11.3619 3.58444 11.7738 3.31405 12.1515 3C11.5247 2.47816 10.8051 2.07919 10.0305 1.824ZM5.9695 1.824C5.19482 2.07908 4.47523 2.47806 3.8485 3C4.22617 3.31405 4.63812 3.58444 5.0765 3.806C5.276 3.15 5.52 2.573 5.797 2.099C5.853 2.003 5.9105 1.9115 5.9695 1.824Z" fill="#4059E8"/>
</g>
<defs>
<clipPath id="clip0_853_2177">
<rect width="16" height="16" fill="white"/>
</clipPath>
</defs>
</svg>
